<?xml version="1.0" encoding="UTF-8"?>
<svg xmlns="http://www.w3.org/2000/svg" viewBox="0 0 64 64" width="512" height="512"><g id="Glyph"><path d="M22.257,35.889C24.581,34.065,27.215,32,32,32s7.419,2.065,9.743,3.889C43.873,37.558,45.712,39,49,39a11.572,11.572,0,0,0,7.122-2.93c-.094-.107-.183-.214-.285-.318A9.606,9.606,0,0,1,52.946,28.4c.035-.558.054-1.053.054-1.4a9.91,9.91,0,0,0-1.431-5.055,1,1,0,0,1,.05-1.088c3.417-4.771,2.849-13.56,2.526-16.621-4.676,1.471-11.389,7.572-13.452,9.52a.985.985,0,0,1-.944.239A30.879,30.879,0,0,0,25.013,13.8a1,1,0,0,1-.915-.243c-2.033-1.907-8.644-7.871-13.242-9.323-.306,2.916-.831,11.023,2.067,15.911a1,1,0,0,1-.035,1.076A10.1,10.1,0,0,0,11,27c0,.346.019.841.054,1.4a9.609,9.609,0,0,1-2.891,7.354c-.1.1-.191.211-.285.317A11.568,11.568,0,0,0,15,39C18.288,39,20.127,37.558,22.257,35.889ZM48,30a14.425,14.425,0,0,0-7.445,1.832l-1.11-1.664A16.314,16.314,0,0,1,48,28ZM42.293,15.293a74.728,74.728,0,0,1,8.152-7.125A1,1,0,0,1,52,9a35.723,35.723,0,0,1-2.052,10.316,1,1,0,0,1-1.4.579l-6-3a1,1,0,0,1-.26-1.6ZM42,21h.392c1.289-.012,2.391-.013,3.087.68A1.8,1.8,0,0,1,46,23a4.411,4.411,0,0,1-4,4h-.392l-.366,0a3.711,3.711,0,0,1-2.721-.682A1.8,1.8,0,0,1,38,25,4.411,4.411,0,0,1,42,21ZM23.448,31.834A14.62,14.62,0,0,0,16,30V28a16.314,16.314,0,0,1,8.555,2.168ZM26,25a1.8,1.8,0,0,1-.521,1.321,3.711,3.711,0,0,1-2.721.682l-.366,0H22a4.411,4.411,0,0,1-4-4,1.8,1.8,0,0,1,.521-1.321c.7-.693,1.8-.691,3.087-.68H22A4.411,4.411,0,0,1,26,25ZM13,9a1,1,0,0,1,1.555-.832,74.728,74.728,0,0,1,8.152,7.125,1,1,0,0,1-.26,1.6l-6,3a1,1,0,0,1-1.395-.579A35.723,35.723,0,0,1,13,9Z"/><path d="M20.3,15.733c-1.2-1.154-3.273-3.11-5.119-4.6a39.242,39.242,0,0,0,1.42,6.454Z"/><path d="M49.825,11.127c-1.847,1.495-3.926,3.451-5.122,4.606l3.7,1.85A39.19,39.19,0,0,0,49.825,11.127Z"/><path d="M21.6,23a8.344,8.344,0,0,0-1.591.079C20.1,23.763,21.019,25,22,25h.4A8.086,8.086,0,0,0,24,24.924c-.073-.655-1-1.921-2-1.921Z"/><path d="M33,49H31V47.318a5.508,5.508,0,0,1-2,.606V48a3,3,0,0,0,6,0v-.076a5.508,5.508,0,0,1-2-.606Z"/><path d="M57.251,37.715A13.293,13.293,0,0,1,49,41c-3.979,0-6.272-1.8-8.491-3.538C38.239,35.682,36.1,34,32,34s-6.239,1.682-8.509,3.462C21.272,39.2,18.979,41,15,41a13.293,13.293,0,0,1-8.251-3.285A7.229,7.229,0,0,0,6,41c0,8.553,12,19,26,19S58,49.553,58,41A7.229,7.229,0,0,0,57.251,37.715ZM37,47.942V48a5,5,0,0,1-10,0v-.058c-2.871-.309-5-1.927-5-3.942h2c0,.944,1.711,2,4,2,1.12,0,3-.26,3-2v-.126A5.54,5.54,0,0,1,27,39c0-3,3.764-3,5-3s5,0,5,3a5.54,5.54,0,0,1-4,4.874V44c0,1.74,1.88,2,3,2,2.289,0,4-1.056,4-2h2C42,46.015,39.871,47.633,37,47.942Z"/><path d="M41.6,25H42c.991,0,1.922-1.266,1.995-1.921A8.1,8.1,0,0,0,42.4,23H42c-.991,0-1.922,1.266-1.995,1.921A8.324,8.324,0,0,0,41.6,25Z"/><path d="M35,39c0-.3,0-1-3-1s-3,.7-3,1a3.409,3.409,0,0,0,3,3A3.409,3.409,0,0,0,35,39Z"/></g></svg>
